<?xml version="1.0" standalone="no"?>
<!DOCTYPE svg PUBLIC "-//W3C//DTD SVG 20010904//EN"
 "http://www.w3.org/TR/2001/REC-SVG-20010904/DTD/svg10.dtd">
<svg version="1.0" xmlns="http://www.w3.org/2000/svg"
 width="260.000000pt" height="260.000000pt" viewBox="0 0 260.000000 260.000000"
 preserveAspectRatio="xMidYMid meet">
<metadata>
Created by potrace 1.14, written by Peter Selinger 2001-2017
</metadata>
<g transform="translate(0.000000,260.000000) scale(0.100000,-0.100000)"
fill="#000000" stroke="none">
<path d="M1198 2540 c-127 -49 -294 -203 -361 -335 -31 -59 -50 -135 -35 -135
7 0 7 -5 1 -12 -10 -14 -10 -16 1 -69 6 -28 2 -53 -17 -105 -13 -38 -22 -75
-19 -83 2 -8 1 -11 -4 -8 -11 6 -11 -66 0 -113 8 -35 108 -236 127 -255 11
-11 12 -36 2 -33 -25 6 -139 -68 -197 -126 -33 -34 -101 -154 -92 -163 3 -4 2
-11 -3 -17 -7 -10 -49 -140 -56 -176 -2 -8 -8 -35 -15 -60 -12 -46 -17 -67
-26 -110 -3 -14 -10 -43 -15 -65 -5 -22 -12 -56 -14 -75 -3 -19 -7 -46 -10
-58 -3 -13 -8 -43 -11 -65 -3 -23 -8 -49 -11 -57 -11 -30 -12 -204 -1 -217 6
-7 7 -13 4 -13 -10 0 50 -84 85 -120 21 -20 39 -30 51 -27 10 3 20 1 23 -4 3
-4 16 -4 30 1 15 6 27 6 30 0 3 -6 15 -6 30 0 15 6 27 6 30 0 3 -6 15 -6 30 0
15 6 27 6 30 0 3 -6 15 -6 30 0 15 6 27 6 30 0 3 -6 15 -6 30 0 15 6 27 6 30
0 3 -6 15 -6 30 0 15 6 27 6 30 0 3 -6 15 -6 30 0 15 6 27 6 30 0 3 -6 15 -6
30 0 15 6 27 6 30 0 3 -6 15 -6 30 0 15 6 27 6 30 0 3 -6 15 -6 30 0 15 6 27
6 30 0 3 -6 15 -6 30 0 15 6 27 6 30 0 3 -6 15 -6 30 0 15 6 27 6 30 0 3 -6
15 -6 30 0 15 6 27 6 30 0 3 -6 15 -6 30 0 15 6 27 6 30 0 3 -6 15 -6 30 0 15
6 27 6 30 0 3 -6 15 -6 30 0 14 5 27 5 30 0 3 -5 18 -5 35 0 17 5 30 5 30 0 0
-5 13 -5 30 0 17 5 30 6 30 2 0 -4 16 -7 35 -7 19 0 35 3 35 7 0 4 13 3 29 -2
30 -8 54 6 57 34 0 6 2 16 2 23 2 12 44 23 105 27 17 2 47 10 64 20 18 9 36
16 39 15 4 0 10 3 13 8 8 12 125 63 143 63 17 0 55 42 67 73 5 12 8 148 7 302
-1 305 -1 306 -59 340 -23 14 -55 18 -136 19 l-105 2 -17 47 c-9 26 -15 47
-13 47 4 0 -20 67 -46 125 -24 55 -88 119 -140 142 -8 3 -27 15 -42 25 -14 10
-31 18 -37 18 -7 0 -23 7 -37 16 -21 14 -23 19 -12 33 24 30 48 78 41 85 -3 3
-2 6 4 6 10 0 23 30 66 145 39 105 37 197 -5 279 -15 28 -22 62 -23 106 -1 36
-3 66 -5 68 -1 1 -3 10 -4 20 -3 41 -55 135 -111 201 -53 62 -185 187 -185
175 0 -4 -8 -1 -17 7 -58 46 -134 57 -205 29z"/>
</g>
</svg>
